<svg width="28" height="20" viewBox="0 0 28 20" fill="none" xmlns="http://www.w3.org/2000/svg">
<path d="M26.4354 3.12324C26.1243 1.89323 25.2107 0.926623 24.0483 0.597366C21.9436 1.78814e-07 13.5 0 13.5 0C13.5 0 5.05638 1.78814e-07 2.95159 0.597366C1.78919 0.926623 0.875699 1.89323 0.564537 3.12324C1.68987e-07 5.35042 0 10 0 10C0 10 1.68987e-07 14.6496 0.564537 16.8768C0.875699 18.1068 1.78919 19.0734 2.95159 19.4026C5.05638 20 13.5 20 13.5 20C13.5 20 21.9436 20 24.0483 19.4026C25.2107 19.0734 26.1243 18.1068 26.4354 16.8768C27 14.6496 27 10 27 10C27 10 26.9977 5.35042 26.4354 3.12324Z" fill="#FF0000"/>
<path d="M10.9175 14.2854L18.01 10.0004L10.9175 5.71533V14.2854Z" fill="white"/>
</svg>
