<svg width="48" height="48" viewBox="0 0 48 48" fill="none" xmlns="http://www.w3.org/2000/svg">
<path fill-rule="evenodd" clip-rule="evenodd" d="M23.5 4.13397C23.8094 3.95534 24.1906 3.95534 24.5 4.13397L40.9545 13.634C41.2639 13.8126 41.4545 14.1427 41.4545 14.5V33.5C41.4545 33.8573 41.2639 34.1874 40.9545 34.366L24.5 43.866C24.1906 44.0447 23.8094 44.0447 23.5 43.866L7.04553 34.366C6.73613 34.1874 6.54553 33.8573 6.54553 33.5V14.5C6.54553 14.1427 6.73613 13.8126 7.04553 13.634L23.5 4.13397ZM8.54553 15.0773V32.9226L24 41.8453L39.4545 32.9226V15.0773L24 6.1547L8.54553 15.0773Z" fill="white"/>
<path d="M34 24.0001L19 32.6604L19 15.3398L34 24.0001Z" fill="white"/>
</svg>
