<svg width="48" height="48" viewBox="0 0 48 48" fill="none" xmlns="http://www.w3.org/2000/svg">
<path fill-rule="evenodd" clip-rule="evenodd" d="M33.8958 9.41979C32.2389 6.55004 28.5694 5.56679 25.6996 7.22364L10.1112 16.2236C7.24144 17.8805 6.25819 21.55 7.91504 24.4198C8.77635 25.9116 10.1798 26.8932 11.7356 27.26C12.1346 27.3541 12.4358 27.6822 12.4954 28.0878C12.5551 28.4934 12.3611 28.8943 12.0061 29.0993L9.61123 30.482C6.74147 32.1388 5.75822 35.8084 7.41508 38.6781C9.07193 41.5479 12.7415 42.5312 15.6112 40.8743L23.4055 36.3743C23.8838 36.0982 24.4953 36.262 24.7715 36.7403C25.0476 37.2186 24.8838 37.8302 24.4055 38.1063L16.6112 42.6063C12.7849 44.8155 7.89217 43.5045 5.68303 39.6781C3.47389 35.8518 4.78489 30.9591 8.61123 28.7499L9.20908 28.4048C7.98965 27.7249 6.93179 26.7167 6.18299 25.4198C3.97385 21.5935 5.28485 16.7007 9.11119 14.4916L24.6996 5.49159C28.526 3.28245 33.4187 4.59345 35.6279 8.41979C37.837 12.2461 36.526 17.1389 32.6996 19.348L32.1018 19.6932C33.3212 20.373 34.3791 21.3812 35.1279 22.6781C35.6154 23.5225 35.9322 24.421 36.0876 25.332C36.1804 25.8765 35.8143 26.3931 35.2699 26.4859C34.7255 26.5788 34.2089 26.2127 34.116 25.6683C33.9999 24.9874 33.7631 24.3142 33.3958 23.6781C32.5345 22.1863 31.1311 21.2048 29.5753 20.8379C29.1763 20.7439 28.8751 20.4158 28.8154 20.0101C28.7558 19.6045 28.9498 19.2036 29.3048 18.9986L31.6996 17.6159C34.5694 15.9591 35.5527 12.2895 33.8958 9.41979Z" fill="white"/>
<path d="M27 24.0001L18 29.1963L18 18.804L27 24.0001Z" fill="white"/>
<path d="M30 36H44V38H30V36Z" fill="white"/>
<path d="M38 30L38 44L36 44L36 30L38 30Z" fill="white"/>
</svg>
