<svg width="48" height="48" viewBox="0 0 48 48" fill="none" xmlns="http://www.w3.org/2000/svg">
<path fill-rule="evenodd" clip-rule="evenodd" d="M6 12C6 10.3431 7.34315 9 9 9H39C40.6569 9 42 10.3431 42 12V36C42 37.6569 40.6569 39 39 39H9C7.34315 39 6 37.6569 6 36V12ZM9 11C8.44772 11 8 11.4477 8 12V36C8 36.5523 8.44772 37 9 37H39C39.5523 37 40 36.5523 40 36V12C40 11.4477 39.5523 11 39 11H9Z" fill="white"/>
<path fill-rule="evenodd" clip-rule="evenodd" d="M11.5 20C11.5 18.8954 12.3954 18 13.5 18H20C21.1046 18 22 18.8954 22 20V22.5H18V22H15.5V26H18V25H22V28C22 29.1046 21.1046 30 20 30H13.5C12.3954 30 11.5 29.1046 11.5 28V20Z" fill="white"/>
<path fill-rule="evenodd" clip-rule="evenodd" d="M26 20C26 18.8954 26.8954 18 28 18H34.5C35.6046 18 36.5 18.8954 36.5 20V22.5H32.5V22H30V26H32.5V25H36.5V28C36.5 29.1046 35.6046 30 34.5 30H28C26.8954 30 26 29.1046 26 28V20Z" fill="white"/>
</svg>
