<svg width="48" height="48" viewBox="0 0 48 48" fill="none" xmlns="http://www.w3.org/2000/svg">
<path fill-rule="evenodd" clip-rule="evenodd" d="M40 8H8V40H40V8ZM6 6V42H42V6H6Z" fill="white"/>
<path fill-rule="evenodd" clip-rule="evenodd" d="M12.5 19.5C12.5 18.3954 13.3954 17.5 14.5 17.5H21C22.1046 17.5 23 18.3954 23 19.5V22.5H19V21.5H16.5V26H19V25H23V28C23 29.1046 22.1046 30 21 30H14.5C13.3954 30 12.5 29.1046 12.5 28V19.5Z" fill="white"/>
<path fill-rule="evenodd" clip-rule="evenodd" d="M25 19.5C25 18.3954 25.8954 17.5 27 17.5H33.5C34.6046 17.5 35.5 18.3954 35.5 19.5V22.5H31.5V21.5H29V26H31.5V25H35.5V28C35.5 29.1046 34.6046 30 33.5 30H27C25.8954 30 25 29.1046 25 28V19.5Z" fill="white"/>
</svg>
