<svg width="48" height="48" viewBox="0 0 48 48" fill="none" xmlns="http://www.w3.org/2000/svg">
<path fill-rule="evenodd" clip-rule="evenodd" d="M6 6H42V42H6V6ZM12.5 19.5C12.5 18.3954 13.3954 17.5 14.5 17.5H21C22.1046 17.5 23 18.3954 23 19.5V22.5H19V21.5H16.5V26H19V25H23V28C23 29.1046 22.1046 30 21 30H14.5C13.3954 30 12.5 29.1046 12.5 28V19.5ZM27 17.5C25.8954 17.5 25 18.3954 25 19.5V28C25 29.1046 25.8954 30 27 30H33.5C34.6046 30 35.5 29.1046 35.5 28V25H31.5V26H29V21.5H31.5V22.5H35.5V19.5C35.5 18.3954 34.6046 17.5 33.5 17.5H27Z" fill="white"/>
</svg>
