<svg width="48" height="48" viewBox="0 0 48 48" fill="none" xmlns="http://www.w3.org/2000/svg">
<path fill-rule="evenodd" clip-rule="evenodd" d="M21 9C17.134 9 14 12.134 14 16C14 19.866 17.134 23 21 23C24.866 23 28 19.866 28 16C28 12.134 24.866 9 21 9ZM12 16C12 11.0294 16.0294 7 21 7C25.9706 7 30 11.0294 30 16C30 20.9706 25.9706 25 21 25C16.0294 25 12 20.9706 12 16Z" fill="white"/>
<path fill-rule="evenodd" clip-rule="evenodd" d="M8.97919 27.9792C12.1673 24.7911 16.4913 23 21 23C23.039 23 25.0403 23.3663 26.9158 24.0625L26.2198 25.9375C24.5649 25.3232 22.7992 25 21 25C17.0218 25 13.2064 26.5804 10.3934 29.3934C7.81699 31.9698 6.2746 35.3869 6.03334 39L24 39V41L4 41L4 40C4 35.4913 5.79107 31.1673 8.97919 27.9792Z" fill="white"/>
<path fill-rule="evenodd" clip-rule="evenodd" d="M37.5 25H34.5L33.9061 27.3755C33.2724 27.6115 32.6893 27.9516 32.1776 28.375L29.8217 27.7011L28.3217 30.2991L30.0827 32.0018C30.0283 32.3265 30 32.6599 30 33C30 33.3401 30.0283 33.6737 30.0827 33.9984L28.3218 35.701L29.8218 38.299L32.1777 37.6251C32.6893 38.0484 33.2724 38.3885 33.9061 38.6245L34.5 41H37.5L38.0939 38.6245C38.7277 38.3885 39.3108 38.0484 39.8225 37.625L42.1784 38.2989L43.6784 35.7009L41.9174 33.9981C41.9717 33.6735 42 33.34 42 33C42 32.6599 41.9717 32.3264 41.9173 32.0017L43.6782 30.299L42.1782 27.701L39.8224 28.3749C39.3107 27.9516 38.7276 27.6115 38.0939 27.3755L37.5 25ZM36 35C37.1046 35 38 34.1046 38 33C38 31.8954 37.1046 31 36 31C34.8954 31 34 31.8954 34 33C34 34.1046 34.8954 35 36 35Z" fill="white"/>
</svg>
