<svg width="48" height="48" viewBox="0 0 48 48" fill="none" xmlns="http://www.w3.org/2000/svg">
<rect x="6" y="18" width="10" height="12" fill="white"/>
<path fill-rule="evenodd" clip-rule="evenodd" d="M29.8284 21.1716C29.0783 20.4214 28.0609 20 27 20V16C29.1217 16 31.1566 16.8429 32.6569 18.3431C34.1571 19.8434 35 21.8783 35 24C35 26.1217 34.1571 28.1566 32.6569 29.6568C31.1566 31.1571 29.1217 32 27 32L27 28C28.0609 28 29.0783 27.5786 29.8284 26.8284C30.5786 26.0783 31 25.0609 31 24C31 22.9391 30.5786 21.9217 29.8284 21.1716Z" fill="white"/>
<path fill-rule="evenodd" clip-rule="evenodd" d="M27 9C30.9783 9 34.7936 10.5804 37.6066 13.3934C40.4197 16.2064 42 20.0218 42 24C42 27.9782 40.4196 31.7936 37.6066 34.6066C34.7936 37.4196 30.9782 39 27 39V35C29.9174 35 32.7153 33.8411 34.7782 31.7782C36.8411 29.7153 38 26.9174 38 24C38 21.0826 36.8411 18.2847 34.7782 16.2218C32.7153 14.1589 29.9174 13 27 13L27 9Z" fill="white"/>
<path d="M6 18H11.083L24 8.41162L24 39.5885L11.0828 30H6V18Z" fill="white"/>
</svg>
