<svg width="48" height="48" viewBox="0 0 48 48" fill="none" xmlns="http://www.w3.org/2000/svg">
<path fill-rule="evenodd" clip-rule="evenodd" d="M39.226 32.6907C41.0186 30.1688 42 27.135 42 24C42 20.0218 40.4197 16.2064 37.6066 13.3934C34.7936 10.5804 30.9783 9 27 9V13C29.9174 13 32.7153 14.1589 34.7782 16.2218C36.8411 18.2847 38 21.0826 38 24C38 26.069 37.4171 28.0778 36.3423 29.807L39.226 32.6907ZM32.8067 33.3425C31.0776 34.4172 29.0688 35 27 35V39C30.1349 39 33.1686 38.0187 35.6904 36.2262L32.8067 33.3425ZM34.1412 27.6059C34.7007 26.498 35 25.2644 35 24C35 21.8783 34.1571 19.8434 32.6569 18.3431C31.1566 16.8429 29.1217 16 27 16V20C28.0609 20 29.0783 20.4214 29.8284 21.1716C30.5786 21.9217 31 22.9391 31 24C31 24.1478 30.9918 24.2948 30.9757 24.4404L34.1412 27.6059ZM27.44 27.9757L30.6056 31.1414C29.4977 31.7007 28.2643 32 27 32L27 28C27.1477 28 27.2946 27.9918 27.44 27.9757ZM24 24.5358V39.5885L11.0828 30H6V26.227V21.7732V18H11.083L14.7455 15.2813L24 24.5358ZM24 17.4647V8.41162L18.804 12.2687L24 17.4647Z" fill="white"/>
<path fill-rule="evenodd" clip-rule="evenodd" d="M40.2929 41.7072L6.29289 7.70718L7.70711 6.29297L41.7071 40.293L40.2929 41.7072Z" fill="white"/>
</svg>
